<?xml version="1.0" standalone="no"?>
<!DOCTYPE svg PUBLIC "-//W3C//DTD SVG 20010904//EN"
 "http://www.w3.org/TR/2001/REC-SVG-20010904/DTD/svg10.dtd">
<svg version="1.0" xmlns="http://www.w3.org/2000/svg"
 width="2498.000000pt" height="2435.000000pt" viewBox="0 0 2498.000000 2435.000000"
 preserveAspectRatio="xMidYMid meet">

<g transform="translate(0.000000,2435.000000) scale(0.100000,-0.100000)"
fill="#000000" stroke="none">
<path d="M15260 23009 l-2775 -1340 -65 30 c-36 17 -1287 618 -2780 1335
l-2715 1305 -12 -47 c-6 -26 -314 -1377 -683 -3002 -502 -2214 -675 -2958
-688 -2968 -9 -8 -1260 -613 -2779 -1347 l-2763 -1332 1021 -1279 c562 -704
1428 -1788 1926 -2411 l904 -1132 -681 -2993 c-374 -1647 -680 -2999 -680
-3006 0 -9 690 -13 3082 -14 l3083 -3 1912 -2395 c1052 -1317 1917 -2396 1922
-2398 5 -2 871 1079 1925 2401 l1916 2404 3087 7 c1698 4 3089 9 3091 10 1 2
-304 1339 -679 2972 -374 1633 -683 2985 -686 3006 -5 36 24 74 1908 2437
1053 1321 1914 2406 1914 2412 0 5 -1249 610 -2774 1343 l-2775 1333 -686
2994 c-378 1647 -688 2999 -691 3006 -2 7 -1077 -507 -2779 -1328z m2350 424
c0 -5 244 -1071 542 -2371 297 -1299 539 -2364 536 -2367 -5 -5 -5455 2609
-5470 2624 -8 7 4355 2119 4380 2120 6 1 12 -2 12 -6z m-8048 -1054 c1203
-579 2188 -1055 2188 -1058 0 -9 -5460 -2644 -5467 -2638 -8 9 1071 4747 1081
4747 5 0 994 -473 2198 -1051z m6121 -2941 c1754 -843 3191 -1537 3193 -1543
2 -5 359 -1559 793 -3453 l789 -3444 -2215 -2779 -2215 -2779 -3542 0 -3541 1
-2200 2755 c-1210 1515 -2204 2765 -2208 2777 -9 24 1554 6919 1569 6924 5 2
1438 694 3184 1537 1746 844 3181 1535 3189 1535 8 1 1450 -689 3204 -1531z
m6130 -2945 c1197 -576 2177 -1050 2177 -1055 0 -5 -680 -863 -1512 -1906
-1770 -2223 -1517 -1906 -1522 -1901 -4 4 -1356 5899 -1356 5913 0 4 8 5 18 2
9 -4 997 -478 2195 -1053z m-16448 990 c-7 -32 -309 -1358 -670 -2948 -360
-1589 -659 -2899 -664 -2910 -6 -16 -141 148 -778 945 -423 531 -1108 1388
-1521 1905 -413 517 -747 943 -743 947 8 9 4372 2117 4383 2118 3 0 0 -26 -7
-57z m15304 -7405 c104 -445 1059 -4623 1058 -4625 -1 -1 -1101 -3 -2445 -5
-1604 -2 -2441 0 -2439 7 5 15 3781 4753 3789 4754 3 1 20 -59 37 -131z
m-14415 -2267 c1038 -1299 1886 -2365 1884 -2367 -2 -2 -1098 -6 -2436 -10
-1956 -6 -2432 -5 -2432 5 0 14 1067 4717 1076 4740 3 9 8 11 13 5 5 -5 858
-1073 1895 -2373z m9264 -3009 c-63 -89 -3023 -3792 -3029 -3790 -9 3 -3039
3796 -3039 3803 0 3 1368 5 3041 5 2942 0 3040 -1 3027 -18z"/>
<path d="M15710 22092 c0 -12 13 -28 34 -40 23 -13 35 -30 40 -52 8 -43 6
-1388 -3 -1420 -4 -14 -21 -34 -39 -45 -17 -11 -31 -28 -32 -38 0 -17 29 -18
648 -15 632 4 649 4 726 26 220 61 346 221 346 437 0 168 -62 275 -206 357
l-55 30 49 33 c125 85 180 223 153 388 -28 172 -128 280 -308 329 -75 21 -103
22 -715 26 -632 4 -638 4 -638 -16z m1214 -282 c69 -35 89 -66 94 -145 5 -77
-8 -114 -53 -154 -52 -46 -102 -51 -480 -51 l-345 0 0 191 0 190 368 -3 367
-3 49 -25z m27 -651 c65 -31 94 -67 110 -136 26 -110 -11 -190 -106 -238 l-60
-30 -377 -3 -378 -3 0 221 0 221 378 -3 377 -3 56 -26z"/>
<path d="M8090 22083 c0 -10 16 -31 35 -46 27 -21 35 -35 35 -59 0 -21 -49
-133 -136 -312 -75 -155 -208 -432 -295 -616 -228 -483 -237 -500 -281 -523
-24 -12 -38 -26 -38 -38 0 -18 11 -19 265 -19 257 0 265 1 265 20 0 12 -12 26
-30 35 -51 26 -56 52 -25 126 15 35 47 103 71 152 l44 87 365 0 365 0 70 -141
c39 -78 70 -150 70 -161 0 -31 -17 -54 -50 -68 -18 -8 -30 -20 -30 -31 0 -18
13 -19 300 -19 287 0 300 1 300 19 0 11 -12 23 -29 30 -57 24 -89 76 -219 346
-71 149 -222 456 -336 682 -123 248 -206 424 -206 441 0 29 20 54 53 65 9 4
17 16 17 27 0 20 -5 20 -290 20 -270 0 -290 -1 -290 -17z m413 -693 l125 -275
-255 -3 c-141 -1 -258 0 -261 2 -2 3 53 131 124 285 71 154 132 277 136 273 3
-4 63 -131 131 -282z"/>
<path d="M12205 19520 c-205 -22 -345 -44 -518 -81 -311 -65 -229 -57 -1542
-139 -647 -40 -990 -65 -1030 -75 -83 -21 -144 -61 -178 -117 -34 -55 -35 -62
-63 -669 -21 -449 -15 -730 20 -1064 50 -473 101 -685 221 -925 178 -355 427
-628 1240 -1360 412 -371 965 -900 1017 -972 l19 -28 -66 -75 c-214 -246 -342
-541 -376 -872 -48 -467 128 -939 474 -1270 94 -90 248 -200 359 -258 l56 -29
8 -126 c12 -188 10 -628 -5 -775 -55 -565 -177 -1015 -391 -1440 -96 -191
-246 -440 -327 -542 -172 -217 -462 -503 -873 -864 -621 -545 -1122 -1146
-1178 -1414 -12 -58 -5 -75 40 -103 345 -209 2518 -453 3670 -412 1222 43
2441 191 2953 357 105 34 151 58 171 89 16 23 16 29 0 85 -60 216 -366 621
-791 1044 -137 136 -236 227 -475 436 -288 251 -610 571 -756 752 -116 143
-304 459 -403 675 -274 599 -386 1267 -347 2064 l8 177 86 46 c592 315 912
1005 776 1673 -51 253 -183 516 -362 719 l-54 63 50 57 c106 123 515 514 907
868 789 713 981 906 1177 1190 257 372 344 715 399 1560 10 165 9 233 -12 610
-5 99 -13 286 -18 417 -8 221 -10 240 -34 291 -35 77 -102 124 -207 146 -30 7
-381 32 -780 56 -1517 93 -1445 87 -1725 144 -239 49 -346 66 -575 91 -217 24
-349 24 -565 0z m-458 -322 c272 -402 459 -827 525 -1198 27 -152 29 -390 4
-505 -19 -84 -17 -120 11 -235 40 -164 116 -234 238 -216 95 15 156 110 187
293 10 61 9 84 -5 160 -21 110 -22 331 -2 465 36 238 131 520 266 789 106 212
323 553 346 544 8 -3 26 -8 40 -11 22 -6 24 -11 19 -38 -11 -54 -68 -137 -167
-242 -113 -119 -135 -163 -126 -252 6 -75 30 -120 142 -272 241 -327 363 -545
492 -874 106 -272 177 -565 209 -866 20 -191 15 -580 -11 -770 -48 -362 -148
-736 -294 -1102 -46 -117 -236 -560 -250 -585 -4 -8 -23 -1 -61 24 -137 88
-353 173 -535 210 -138 27 -455 25 -591 -5 -186 -40 -378 -116 -515 -204 l-55
-36 -117 272 c-140 326 -189 452 -255 658 -87 266 -149 549 -184 838 -20 161
-16 613 6 775 87 634 296 1125 736 1725 78 106 100 159 100 237 0 79 -18 112
-127 226 -89 94 -148 179 -168 245 -5 19 -1 25 27 37 18 8 36 14 40 15 3 0 37
-46 75 -102z m-1135 -409 c569 -440 609 -476 637 -560 20 -61 -3 -124 -143
-402 -192 -382 -254 -555 -288 -802 -18 -138 -18 -1034 0 -1190 29 -247 87
-471 194 -745 33 -85 62 -162 65 -170 8 -24 -323 314 -436 445 -222 258 -378
487 -501 740 -126 256 -196 474 -242 755 -19 118 -22 174 -23 445 0 196 5 349
13 415 35 283 103 632 177 905 45 167 137 475 141 475 2 0 185 -140 406 -311z
m4197 212 c273 -877 363 -1597 270 -2162 -103 -637 -418 -1179 -1044 -1799
l-136 -135 22 55 c149 380 201 557 234 810 43 315 39 1087 -5 1339 -34 194
-94 354 -262 694 -138 280 -153 314 -156 370 -7 115 4 125 632 611 225 174
410 316 412 316 1 0 16 -45 33 -99z m-5403 -450 c174 -151 325 -288 335 -305
33 -55 33 -89 0 -231 -72 -308 -97 -548 -88 -834 14 -428 101 -787 287 -1178
32 -68 56 -123 53 -123 -15 0 -140 110 -229 201 -253 261 -441 591 -579 1019
-157 489 -211 1092 -140 1560 24 156 27 171 36 168 5 -2 151 -126 325 -277z
m6518 192 c72 -400 56 -873 -44 -1333 -122 -558 -367 -1041 -690 -1360 -82
-81 -210 -188 -210 -175 0 3 24 54 54 113 131 262 221 551 271 872 22 143 31
513 16 677 -15 156 -41 315 -81 485 -40 170 -35 197 59 285 85 81 594 522 602
522 4 1 14 -38 23 -86z m-3129 -4487 c238 -62 419 -162 588 -325 348 -335 482
-804 361 -1267 -185 -713 -942 -1130 -1647 -908 -194 62 -377 173 -523 319
-185 186 -303 403 -361 667 -25 117 -25 390 1 508 115 529 522 926 1051 1024
58 11 129 14 255 12 149 -3 190 -7 275 -30z m121 -3133 c-1 -314 2 -417 17
-538 86 -724 298 -1324 664 -1884 217 -332 472 -612 828 -912 467 -393 818
-770 1056 -1134 105 -161 112 -174 97 -180 -24 -8 -380 -74 -593 -109 -514
-85 -995 -140 -1575 -178 -267 -18 -1585 -18 -1840 0 -742 51 -1288 120 -1970
248 -102 19 -191 37 -198 39 -23 8 148 267 318 479 224 281 495 549 885 876
164 138 284 251 398 378 624 690 984 1548 1058 2522 7 97 10 270 7 463 -3 169
-3 307 1 307 3 0 49 -9 101 -21 122 -26 381 -36 511 -20 73 9 230 42 235 50 0
0 0 -173 0 -386z"/>
<path d="M12258 14160 c-48 -10 -118 -28 -155 -40 -81 -27 -239 -107 -307
-157 l-49 -35 77 -41 c148 -77 302 -251 377 -428 28 -65 79 -228 79 -253 0
-22 -195 37 -305 92 -183 91 -345 248 -405 391 -7 17 -16 31 -21 31 -15 0 -91
-121 -141 -225 -184 -386 -140 -857 113 -1208 l27 -37 42 77 c31 56 70 105
139 174 105 105 201 168 334 219 81 32 206 64 214 56 9 -9 -38 -167 -76 -255
-47 -111 -104 -196 -190 -285 -66 -69 -194 -161 -238 -172 -12 -4 -23 -9 -23
-13 0 -7 99 -73 170 -114 304 -175 744 -187 1075 -29 104 50 225 126 225 141
0 5 -14 14 -31 21 -143 60 -299 221 -391 405 -55 109 -115 305 -93 305 26 0
178 -46 244 -74 183 -77 360 -231 438 -381 l40 -77 36 50 c56 75 122 207 156
307 82 245 82 525 1 767 -36 107 -66 167 -137 277 l-55 84 -28 -57 c-90 -177
-272 -335 -481 -416 -90 -34 -207 -65 -216 -56 -19 19 73 273 139 383 70 117
238 273 350 323 l40 18 -73 50 c-143 96 -295 157 -463 187 -122 21 -327 19
-438 -5z"/>
<path d="M11018 7732 c-120 -64 -218 -122 -218 -128 0 -27 80 -199 91 -196 13
3 206 108 267 144 l32 20 0 -451 0 -451 -180 0 -180 0 0 -115 0 -115 470 0
470 0 0 115 0 115 -155 0 -155 0 0 590 0 590 -112 0 -113 -1 -217 -117z"/>
<path d="M12070 7480 l0 -370 173 0 c243 0 324 -18 389 -87 36 -37 48 -73 48
-139 0 -148 -99 -229 -295 -241 -80 -5 -269 9 -317 23 -16 5 -18 -5 -18 -109
l0 -114 33 -7 c72 -15 314 -19 396 -7 221 33 388 140 453 290 43 100 42 271
-3 365 -47 101 -146 177 -275 211 -32 9 -121 19 -196 22 l-138 6 0 138 0 139
285 0 285 0 0 125 0 125 -410 0 -410 0 0 -370z"/>
<path d="M13775 7839 c-289 -42 -465 -194 -536 -464 -29 -111 -38 -413 -16
-530 32 -168 92 -273 195 -342 80 -54 143 -73 262 -80 275 -15 490 127 540
358 14 62 9 212 -9 269 -19 63 -75 143 -125 181 -80 60 -168 84 -311 84 -82
-1 -138 -6 -175 -17 -30 -9 -66 -20 -79 -24 -24 -7 -24 -7 -18 49 3 32 16 81
30 110 67 145 182 196 445 197 l132 0 0 110 0 110 -137 -1 c-76 -1 -165 -5
-198 -10z m38 -750 c158 -44 196 -280 63 -397 -81 -71 -215 -69 -296 4 -53 48
-80 124 -87 241 l-6 91 34 18 c88 46 214 65 292 43z"/>
<path d="M21370 15615 c0 -14 6 -25 13 -25 8 0 22 -9 32 -20 31 -34 22 -83
-40 -209 -108 -218 -337 -695 -467 -971 -71 -151 -138 -285 -149 -297 -12 -12
-34 -27 -50 -33 -17 -8 -29 -20 -29 -31 0 -18 12 -19 270 -19 258 0 270 1 270
19 0 11 -12 23 -30 31 -68 28 -66 59 17 231 l66 139 367 0 366 0 67 -137 c83
-170 85 -211 15 -236 -10 -4 -18 -16 -18 -27 0 -20 5 -20 295 -20 288 0 295 0
295 20 0 13 -11 25 -32 34 -18 7 -43 24 -55 37 -12 13 -97 179 -188 369 -92
190 -243 496 -335 680 -93 184 -172 347 -176 363 -5 23 0 33 30 62 69 65 70
65 -249 65 l-285 0 0 -25z m404 -678 c69 -153 126 -280 126 -283 0 -2 -117 -4
-261 -4 -205 0 -260 3 -256 13 3 6 53 116 112 242 59 127 116 250 126 274 11
24 21 42 23 40 2 -2 61 -129 130 -282z"/>
<path d="M2450 15643 c1 -10 15 -27 33 -38 l32 -20 0 -735 0 -735 -32 -20
c-18 -11 -32 -28 -33 -37 0 -17 36 -18 624 -18 686 0 721 2 843 59 208 98 305
345 222 566 -27 73 -104 156 -179 193 l-58 30 48 31 c60 39 107 91 134 150 18
39 21 65 21 171 0 118 -2 128 -29 185 -38 77 -106 144 -181 179 -109 52 -155
55 -827 56 -582 0 -618 -1 -618 -17z m1228 -281 c111 -59 109 -257 -3 -316
-38 -20 -58 -21 -417 -24 l-378 -3 0 186 0 186 378 -3 c372 -3 378 -3 420 -26z
m-85 -622 c123 -18 187 -68 207 -163 21 -104 -22 -201 -105 -238 -65 -29 -197
-39 -517 -39 l-298 0 0 225 0 225 323 0 c177 0 353 -5 390 -10z"/>
<path d="M19360 7535 c0 -14 6 -25 13 -25 8 0 23 -10 35 -23 l22 -23 0 -716
c0 -394 -3 -724 -6 -733 -4 -8 -19 -22 -35 -31 -17 -8 -29 -23 -29 -34 0 -20
10 -20 726 -20 492 0 732 -3 745 -11 11 -5 24 -21 29 -35 6 -14 17 -24 30 -24
19 0 20 6 20 210 0 203 -1 210 -20 210 -13 0 -22 -9 -26 -25 -14 -56 -5 -55
-561 -55 l-513 0 0 629 c0 346 3 637 6 646 4 8 19 22 35 31 17 8 29 23 29 34
0 19 -8 20 -250 20 l-250 0 0 -25z"/>
<path d="M4220 7593 c1 -10 15 -27 33 -38 l32 -20 0 -735 0 -735 -32 -20 c-18
-11 -32 -28 -33 -37 0 -17 18 -18 235 -18 217 0 235 1 235 18 -1 9 -15 26 -33
37 l-32 20 -2 515 -3 515 73 -75 c40 -41 252 -261 472 -488 220 -228 406 -425
414 -440 13 -24 12 -27 -13 -48 -14 -13 -26 -30 -26 -39 0 -13 31 -15 255 -15
238 0 255 1 255 18 0 10 -12 22 -30 29 -17 6 -34 23 -40 38 -14 36 -14 1414 0
1450 6 15 23 32 40 38 18 7 30 19 30 29 0 17 -17 18 -240 18 -223 0 -240 -1
-240 -18 0 -10 12 -22 30 -29 17 -6 34 -23 40 -38 6 -16 10 -209 10 -513 l0
-487 -68 70 c-705 730 -862 898 -862 920 0 24 23 55 41 55 5 0 9 9 9 20 0 20
-7 20 -275 20 -255 0 -275 -1 -275 -17z"/>
<path d="M12280 4206 c-232 -42 -409 -139 -533 -291 -62 -76 -132 -218 -157
-317 -55 -220 -26 -443 83 -638 57 -101 196 -240 297 -297 144 -80 326 -123
525 -123 408 0 697 161 850 474 68 138 80 195 79 371 -1 133 -4 160 -28 240
-88 290 -301 488 -609 566 -106 27 -393 35 -507 15z m335 -271 c200 -36 356
-168 419 -357 75 -222 26 -440 -133 -599 -115 -115 -227 -159 -401 -159 -181
0 -300 47 -416 164 -111 112 -158 230 -157 401 1 165 51 292 159 399 136 137
318 189 529 151z"/>
</g>
</svg>
